# xmcd
#
# Track frame offsets:
#	150
#	21447
#	48852
#	65380
#	81180
#	97415
#	111657
#	131910
#	151892
#	169707
#
# Disc length: 2437 seconds
#
# Revision: 3163141731
# Processed by: cddbd v1.5.2PL0 Copyright (c) Steve Scherf et al.
# Submitted via: EZCDAudioConverter 8.0.2.1
#
DISCID=8b09830a
DTITLE=Don Hồ, Ngọc Huệ - Hải Đảo Cô Đơn
DYEAR=1996
DGENRE=
TTITLE0=Don Hồ, Ngọc Huệ - Thuyền tình trên sóng
TTITLE1=Ngọc Huệ - Về nơi xứ lạ
TTITLE2=Don Hồ - Nỗi nhớ rong rêu
TTITLE3=Ngọc Huệ - Mùa hạ trắng
TTITLE4=Don Hồ, Ngọc Huệ - Giấc mơ sa mạc
TTITLE5=Don Hồ, Ngọc Huệ - Thung lũng mùa đông
TTITLE6=Don Hồ - Ru em tiếng sóng biển
TTITLE7=Ngọc Huệ - Chiều nghe biển hát
TTITLE8=Don Hồ - Một lần trong đời
TTITLE9=Don Hồ, Ngọc Huệ - Hải đảo cô đơn
EXTD=
EXTT0=
EXTT1=
EXTT2=
EXTT3=
EXTT4=
EXTT5=
EXTT6=
EXTT7=
EXTT8=
EXTT9=
PLAYORDER=
